<svg version="1.1" id="Layer_1" xmlns="http://www.w3.org/2000/svg" xmlns:xlink="http://www.w3.org/1999/xlink" x="0px" y="0px"
	 width="100%" viewBox="0 0 1024 1024" enable-background="new 0 0 1024 1024" xml:space="preserve">
<path fill="#000000" opacity="1.000000" stroke="none" 
	d="
M351.724396,254.369919 
	C362.738068,276.118927 371.526794,298.396423 379.347168,321.075439 
	C380.251587,323.698242 380.752533,326.508179 382.592804,329.052216 
	C385.186615,327.331970 384.992126,324.585236 385.625397,322.338287 
	C393.816528,293.274841 403.170502,264.664429 418.509064,238.416473 
	C425.630096,226.230652 434.491699,224.627960 445.789795,233.305588 
	C460.348999,244.487930 470.699280,259.116547 479.509644,274.952911 
	C497.188507,306.730194 506.846741,341.276337 514.265503,376.557953 
	C519.523804,401.565094 522.015137,426.931854 521.120422,452.427795 
	C520.545349,468.818329 523.802673,483.912262 529.889282,498.985504 
	C539.362244,522.444946 548.726746,545.942627 559.221313,568.963501 
	C561.173462,573.245728 560.234741,575.404419 556.885620,578.525146 
	C537.391052,596.690247 518.352783,615.343933 498.930573,633.587952 
	C448.652954,680.815735 399.273254,728.961182 350.856598,778.091736 
	C341.040436,788.052612 331.561768,798.350891 322.091644,808.644653 
	C319.642426,811.306885 317.123138,812.488892 313.441315,812.484619 
	C298.616028,812.467407 283.790619,812.809753 268.964661,812.954834 
	C258.564941,813.056641 257.341492,810.995483 260.801819,801.033997 
	C267.079376,782.962463 276.222076,766.410461 286.556427,750.401001 
	C304.078400,723.256653 310.660065,693.455383 307.953522,661.357422 
	C306.996399,650.006897 305.014893,639.041748 301.071136,628.292297 
	C293.992249,608.997314 280.207367,598.978088 260.284241,595.196655 
	C231.837799,589.797485 203.613953,583.278442 176.662399,572.243469 
	C156.563721,564.014404 140.444687,551.266113 130.071472,531.874817 
	C128.663055,529.242004 127.313438,526.523376 126.387794,523.696716 
	C123.543770,515.011841 120.553741,506.455750 116.334595,498.259583 
	C112.267258,490.358276 115.255913,482.344879 123.095703,477.738586 
	C134.524796,471.023376 147.314499,467.527283 159.571655,462.815643 
	C184.124512,453.377502 208.827713,444.328491 233.514801,435.243683 
	C237.059235,433.939362 238.998322,431.940796 240.463882,428.304108 
	C248.410583,408.584717 263.125061,394.899658 281.101593,384.402405 
	C305.051392,370.417175 331.526672,363.907196 358.416107,358.758270 
	C363.954834,357.697723 369.613312,357.272705 375.205597,356.477570 
	C378.201904,356.051544 380.876587,355.192963 379.861176,350.327759 
	C359.251282,351.007294 339.073669,354.836121 318.884521,360.423889 
	C318.089417,350.604187 319.090179,341.667786 319.807220,332.763245 
	C321.408905,312.873810 323.645508,293.047028 328.697845,273.674957 
	C330.248993,267.727509 332.059357,261.824860 334.163849,256.052185 
	C335.693085,251.857391 337.455200,247.274353 342.876160,246.821457 
	C347.876862,246.403656 349.231384,250.923523 351.724396,254.369919 
M414.227722,357.506836 
	C413.973511,370.168732 414.026337,382.821838 415.422699,395.430664 
	C415.774109,398.603668 416.324463,401.711517 418.963837,403.957458 
	C426.195740,410.111328 433.443146,416.247559 440.628601,422.455353 
	C443.790558,425.187103 445.779510,424.296539 447.435059,420.783722 
	C451.694946,411.744904 456.360138,402.886292 460.334930,393.726379 
	C466.330780,379.909027 469.131989,365.688263 466.240784,350.427826 
	C460.453735,319.882019 449.045532,291.388489 435.775055,263.513763 
	C434.825836,261.519897 434.053986,259.239502 431.028351,257.689850 
	C420.669037,290.155640 414.675568,322.840332 414.227722,357.506836 
M287.448975,467.800964 
	C288.135864,469.666473 288.647278,471.620819 289.539215,473.382507 
	C294.048889,482.289612 304.433807,486.065063 313.739227,482.276764 
	C322.962891,478.521790 327.829437,467.949158 324.732971,458.392883 
	C321.657684,448.901947 311.767334,443.088501 302.485718,445.233612 
	C294.644409,447.045837 285.839447,455.869293 287.448975,467.800964 
M132.250519,480.832458 
	C129.415802,481.814362 126.745850,483.064148 124.514023,485.153900 
	C119.320801,490.016388 120.550117,497.267365 127.054741,500.115509 
	C128.991699,500.963623 130.815857,500.844025 131.803711,498.937469 
	C134.906815,492.948456 136.927109,486.589691 138.180664,480.061310 
	C135.903229,478.981903 134.510315,480.386597 132.250519,480.832458 
z"/>
<path fill="#000000" opacity="1.000000" stroke="none" 
	d="
M845.703735,446.378845 
	C851.522400,456.151825 856.489014,465.954437 860.437744,476.224731 
	C863.424377,483.992676 869.401550,488.863861 875.897034,493.362213 
	C880.969055,496.874725 885.912720,500.533203 890.273865,504.942566 
	C894.527527,509.243286 896.404602,514.443909 896.022522,520.355652 
	C894.390747,545.604309 885.351868,567.520203 866.780212,585.180115 
	C853.973877,597.357849 838.510498,604.942322 822.424988,611.596313 
	C811.362732,616.172485 799.722046,619.277832 789.163391,625.149963 
	C767.638794,637.120911 757.855835,656.093140 756.352905,679.916382 
	C755.267639,697.119629 759.584412,713.606934 764.058899,729.979431 
	C770.109497,752.119019 773.354126,774.553589 772.258057,797.538452 
	C772.234253,798.037659 772.237488,798.538452 772.205017,799.036987 
	C771.466370,810.368652 769.901123,812.244812 758.684082,812.642395 
	C746.878662,813.060791 735.050659,812.973328 723.234070,812.889587 
	C717.582031,812.849609 715.580017,810.922852 714.021729,804.353516 
	C710.104004,787.837219 705.722717,771.466309 699.855713,755.514343 
	C692.411804,735.274536 682.794373,716.145630 671.046570,698.060181 
	C648.270935,662.997681 622.682678,629.842468 600.686646,594.253906 
	C584.958801,568.807007 576.130798,540.815063 570.779297,511.639801 
	C567.262329,492.466431 565.701294,473.080200 565.602112,453.559662 
	C565.434021,420.473022 572.435425,388.834473 584.561279,358.240234 
	C594.342224,333.562592 606.367249,310.015320 621.129456,287.909760 
	C621.314453,287.632782 621.510010,287.362457 621.709778,287.095825 
	C627.618835,279.209229 633.187561,279.486206 637.371338,288.313019 
	C642.288025,298.686249 646.856201,309.233917 651.275635,319.830963 
	C655.502136,329.965576 659.336304,340.263641 663.362610,350.482086 
	C663.965393,352.011810 664.285767,353.709656 665.992737,355.067749 
	C668.254272,353.434235 669.504089,350.913422 670.940308,348.605408 
	C683.364502,328.639313 696.848022,309.436096 712.055237,291.478333 
	C714.202759,288.942352 716.552551,286.553223 718.991333,284.293274 
	C724.513611,279.176086 729.288330,280.519928 731.692566,287.782776 
	C734.430542,296.053925 734.979309,304.731567 736.232300,313.263763 
	C739.109375,332.855499 741.138489,352.539703 741.324768,372.363892 
	C741.365479,376.695251 743.842773,377.828949 747.445862,378.730682 
	C768.538879,384.009521 788.994141,391.005737 807.167480,403.301239 
	C823.467957,414.329620 835.993347,428.884766 845.703735,446.378845 
M776.311401,493.931427 
	C778.553101,492.409668 780.355469,490.457184 781.783813,488.175110 
	C785.721985,481.883301 785.637268,475.595367 781.551392,469.418213 
	C777.801025,463.748230 772.507141,460.342712 765.676392,460.689911 
	C758.284912,461.065582 751.425110,466.942810 749.522095,473.747437 
	C747.360535,481.476746 749.817261,487.841125 755.696045,492.986237 
	C761.184692,497.789886 768.218323,498.197876 776.311401,493.931427 
M871.200684,513.516846 
	C871.556030,515.639526 871.806580,517.786743 872.296143,519.877991 
	C872.783203,521.958130 873.100342,524.694702 875.479553,525.124512 
	C879.683472,525.883972 882.616150,523.037537 885.349426,520.331909 
	C887.494385,518.208618 888.966797,515.408997 887.286560,512.673950 
	C883.526794,506.553986 877.617371,503.184967 870.710022,500.312012 
	C870.117676,505.111694 870.148621,508.890717 871.200684,513.516846 
z"/>
<path fill="#000000" opacity="1.000000" stroke="none" 
	d="
M608.193481,656.825500 
	C625.756531,682.152832 644.226990,706.470398 658.267517,733.651245 
	C670.365417,757.071289 677.470215,782.130371 682.090088,807.971985 
	C682.691528,811.336121 681.343140,812.563232 678.090088,812.420349 
	C675.263550,812.296204 672.426880,812.401184 669.594727,812.406433 
	C586.133362,812.561523 502.672058,812.786560 419.210632,812.816956 
	C401.065430,812.823547 382.920471,812.116455 364.770782,812.675537 
	C363.313721,812.720398 361.844025,812.355835 360.108002,812.149170 
	C360.252167,809.322388 362.342987,807.975098 363.766632,806.342529 
	C388.970428,777.437134 416.242340,750.532288 443.790039,723.902771 
	C469.176117,699.362732 494.626404,674.888672 520.136353,650.477356 
	C536.257812,635.050293 552.537476,619.788513 568.758789,604.465942 
	C569.710999,603.566528 570.570862,602.480347 573.261230,602.078247 
	C583.148315,620.926758 596.046570,638.411072 608.193481,656.825500 
z"/>
</svg>